<?xml version="1.0" standalone="no"?>
<!DOCTYPE svg PUBLIC "-//W3C//DTD SVG 20010904//EN"
 "http://www.w3.org/TR/2001/REC-SVG-20010904/DTD/svg10.dtd">
<svg version="1.0" xmlns="http://www.w3.org/2000/svg"
 width="495.000000pt" height="494.000000pt" viewBox="0 0 495.000000 494.000000"
 preserveAspectRatio="xMidYMid meet">

<g transform="translate(0.000000,494.000000) scale(0.100000,-0.100000)"
fill="#000000" stroke="none">
<path d="M0 2470 l0 -2470 2475 0 2475 0 0 2470 0 2470 -2475 0 -2475 0 0
-2470z m2790 2184 c621 -90 1173 -440 1522 -964 91 -137 207 -374 257 -527
148 -446 148 -935 0 -1387 -48 -147 -162 -384 -246 -511 -361 -547 -922 -898
-1573 -986 -121 -17 -437 -17 -555 -1 -243 34 -459 100 -680 207 -672 325
-1134 961 -1229 1695 -20 151 -20 429 -2 570 87 640 428 1193 962 1552 306
207 666 334 1042 368 126 11 369 4 502 -16z"/>
<path d="M2298 4303 c-15 -34 -21 -68 -21 -116 0 -58 5 -78 34 -135 23 -44 49
-77 77 -99 24 -18 47 -33 52 -33 4 0 18 23 30 52 30 71 30 165 0 236 -23 53
-108 142 -136 142 -8 0 -24 -21 -36 -47z"/>
<path d="M2679 4326 c-68 -46 -119 -149 -119 -241 0 -46 22 -128 40 -150 17
-21 57 2 109 61 51 59 76 134 68 213 -6 64 -34 141 -51 141 -6 0 -27 -11 -47
-24z"/>
<path d="M3383 4194 c-105 -38 -186 -155 -187 -273 -1 -65 -1 -66 27 -69 40
-5 129 41 168 85 54 62 80 132 77 205 -3 72 -12 78 -85 52z"/>
<path d="M2967 4110 c-74 -68 -101 -135 -94 -233 6 -73 33 -142 56 -142 40 0
127 102 151 178 24 75 -6 232 -46 244 -6 2 -37 -19 -67 -47z"/>
<path d="M2027 4113 c-95 -100 -91 -297 7 -392 l33 -32 32 37 c87 107 78 296
-19 389 l-26 25 -27 -27z"/>
<path d="M1534 4086 c-12 -32 2 -132 25 -177 43 -84 126 -148 213 -164 34 -6
35 -6 41 27 12 77 -35 203 -96 254 -67 57 -171 90 -183 60z"/>
<path d="M2252 3913 c-49 -171 -62 -285 -43 -385 7 -35 39 -119 71 -188 32
-69 66 -153 75 -188 17 -68 32 -192 22 -192 -11 0 -278 313 -328 383 -80 114
-137 283 -140 414 -2 94 -15 104 -24 19 -14 -145 11 -289 72 -411 14 -27 64
-106 111 -175 158 -231 184 -273 228 -364 46 -97 87 -227 99 -316 l7 -55 -93
90 c-52 50 -129 116 -171 148 -43 31 -84 67 -93 80 -9 14 -38 85 -65 160 -66
183 -112 275 -171 338 l-49 54 40 -86 c34 -73 136 -397 128 -404 -4 -3 -341
195 -461 272 -48 30 -91 53 -94 49 -11 -11 20 -67 60 -107 23 -22 107 -86 189
-141 148 -100 279 -210 266 -223 -3 -4 -42 1 -85 9 -140 29 -294 46 -468 53
-162 6 -172 5 -222 -17 -29 -12 -53 -26 -53 -31 0 -5 31 -9 69 -9 63 0 326
-43 432 -70 351 -90 577 -262 670 -509 45 -121 47 -379 4 -502 -8 -23 -15 -43
-15 -45 0 -2 124 -4 276 -4 259 0 276 1 271 18 -3 9 -17 49 -31 87 -33 94 -54
201 -61 315 -6 83 -3 108 19 193 33 123 70 205 130 284 84 111 188 175 436
269 172 64 234 97 298 157 51 49 110 142 98 154 -3 4 -32 -8 -63 -25 -91 -48
-413 -151 -413 -132 0 24 96 148 177 228 51 50 90 92 85 92 -15 0 -123 -69
-188 -120 -35 -29 -110 -101 -167 -161 -90 -95 -112 -112 -168 -135 -121 -49
-214 -115 -271 -194 l-40 -55 7 74 c14 155 74 287 181 401 107 113 232 188
568 339 100 46 166 95 166 125 0 16 -3 15 -28 -3 -50 -35 -128 -60 -273 -86
-78 -14 -143 -24 -144 -23 -2 2 8 41 23 88 31 102 36 266 10 335 l-15 40 -8
-105 c-19 -263 -76 -360 -309 -520 -61 -41 -134 -97 -163 -124 l-53 -48 0 32
c0 51 43 164 129 339 96 195 116 272 108 400 -6 92 -24 169 -36 155 -4 -5 -13
-41 -19 -80 -20 -127 -58 -224 -146 -378 -47 -81 -91 -163 -98 -182 -6 -19
-15 -34 -20 -34 -4 0 -39 32 -78 72 -77 78 -134 177 -149 260 -10 56 -6 195 8
293 6 38 8 71 6 73 -2 2 -12 -27 -23 -65z"/>
<path d="M2471 3822 c-72 -71 -95 -132 -89 -230 4 -69 31 -142 53 -142 21 0
82 53 113 100 39 56 56 126 49 191 -7 57 -41 139 -57 139 -6 0 -38 -26 -69
-58z"/>
<path d="M3430 3801 c-115 -35 -210 -161 -210 -279 l0 -35 50 6 c143 17 253
125 267 263 l6 54 -44 -1 c-24 0 -55 -4 -69 -8z"/>
<path d="M1513 3651 c16 -131 134 -237 276 -249 l64 -5 -6 46 c-14 98 -88 196
-181 238 -25 11 -64 19 -100 19 l-59 0 6 -49z"/>
<path d="M1081 3680 c-27 -12 -24 -36 10 -105 56 -108 188 -178 302 -159 38 6
39 7 32 42 -22 117 -141 220 -264 228 -31 2 -67 -1 -80 -6z"/>
<path d="M3783 3664 c-57 -20 -129 -86 -158 -145 -41 -81 -35 -89 69 -89 91 0
152 24 212 84 58 59 97 142 73 157 -22 14 -149 9 -196 -7z"/>
<path d="M908 3394 c-22 -7 -22 -18 -2 -77 36 -105 146 -187 264 -194 90 -6
98 2 77 70 -35 110 -146 195 -264 202 -32 2 -66 2 -75 -1z"/>
<path d="M1438 3335 c-9 -10 12 -87 33 -121 28 -46 95 -103 147 -126 48 -22
165 -29 182 -12 13 13 -20 105 -54 149 -33 43 -104 91 -156 105 -37 11 -143
14 -152 5z"/>
<path d="M3653 3304 c-57 -20 -129 -86 -158 -145 -31 -60 -31 -76 -2 -85 42
-14 144 -6 189 14 79 34 147 108 168 182 7 25 5 32 -10 40 -27 15 -138 11
-187 -6z"/>
<path d="M943 3051 c-60 -20 -112 -58 -144 -102 l-22 -32 24 -18 c39 -30 89
-43 159 -43 87 1 155 31 216 97 l48 50 -23 18 c-30 25 -114 49 -165 49 -23 -1
-64 -9 -93 -19z"/>
<path d="M1315 2981 c-50 -14 -80 -28 -93 -44 -10 -12 -7 -22 20 -57 75 -98
220 -136 341 -90 31 12 57 26 57 32 0 39 -78 114 -154 146 -37 16 -133 23
-171 13z"/>
<path d="M3775 2891 c-54 -14 -111 -49 -149 -91 -20 -23 -35 -47 -33 -53 2 -6
25 -23 52 -37 68 -34 178 -34 250 0 59 29 127 94 123 118 -8 42 -166 83 -243
63z"/>
<path d="M3369 2689 c-67 -10 -169 -67 -169 -95 0 -22 67 -71 120 -89 101 -33
239 -5 302 62 l21 23 -23 25 c-31 33 -114 72 -165 77 -22 2 -61 1 -86 -3z"/>
<path d="M975 2642 c-59 -29 -96 -62 -129 -113 -14 -23 -15 -28 -2 -38 23 -19
104 -41 151 -41 81 0 144 27 207 90 32 32 58 65 58 74 0 27 -60 49 -145 53
-72 4 -86 1 -140 -25z"/>
<path d="M3730 1050 l0 -220 25 0 25 0 0 220 0 220 -25 0 -25 0 0 -220z"/>
<path d="M1273 1239 c-45 -13 -96 -67 -111 -116 -17 -59 -14 -142 7 -189 23
-50 60 -81 115 -94 22 -6 79 -21 125 -35 46 -13 88 -22 93 -19 18 11 7 34 -19
40 -16 3 -41 9 -58 13 l-30 7 31 18 c52 31 78 80 82 156 7 110 -26 176 -102
211 -45 20 -83 22 -133 8z m134 -61 c35 -32 53 -78 53 -138 0 -102 -50 -165
-130 -165 -80 0 -130 63 -130 164 0 77 32 139 85 162 32 14 95 3 122 -23z"/>
<path d="M2017 1243 c-3 -5 -28 -87 -56 -183 -29 -96 -56 -187 -61 -202 -9
-28 -9 -28 39 -28 l47 0 13 50 13 50 62 0 62 0 13 -50 13 -50 50 0 c36 0 49 4
46 13 -3 6 -32 101 -64 209 l-59 198 -57 0 c-31 0 -59 -3 -61 -7z m99 -225 c5
-15 -1 -18 -40 -18 -25 0 -46 3 -46 6 0 3 6 32 14 63 8 31 17 70 21 86 6 27 9
23 26 -45 11 -41 22 -83 25 -92z"/>
<path d="M2348 1243 l-28 -4 0 -199 0 -200 26 -6 c40 -10 166 2 210 21 57 23
92 62 109 119 27 90 13 161 -44 217 -50 51 -153 70 -273 52z m204 -102 c25
-28 28 -39 28 -96 0 -60 -3 -68 -33 -101 -28 -31 -41 -37 -85 -42 l-52 -5 0
143 0 142 57 -4 c48 -4 61 -10 85 -37z"/>
<path d="M2690 1210 l0 -40 55 0 55 0 0 -170 0 -170 45 0 45 0 0 170 0 170 55
0 55 0 0 40 0 40 -155 0 -155 0 0 -40z"/>
<path d="M1580 1030 c0 -113 14 -159 54 -185 33 -22 90 -15 121 15 23 22 35
18 35 -12 0 -11 7 -18 20 -18 19 0 20 7 20 150 l0 150 -25 0 -25 0 0 -101 c0
-98 -1 -101 -29 -130 -34 -34 -59 -37 -92 -10 -22 18 -24 28 -27 130 -4 110
-4 111 -28 111 -24 0 -24 -1 -24 -100z"/>
<path d="M3121 1113 c-50 -26 -74 -64 -79 -125 -3 -44 0 -59 20 -88 31 -46 82
-72 131 -66 73 9 114 53 123 132 12 115 -98 198 -195 147z m114 -47 c30 -30
40 -84 25 -130 -22 -67 -86 -86 -137 -42 -25 22 -28 31 -28 86 0 55 3 64 28
86 36 31 81 31 112 0z"/>
<path d="M3461 1113 c-50 -26 -74 -64 -79 -125 -3 -44 0 -59 20 -88 31 -46 82
-72 131 -66 73 9 114 53 123 132 12 115 -98 198 -195 147z m114 -47 c30 -30
40 -84 25 -130 -22 -67 -86 -86 -137 -42 -25 22 -28 31 -28 86 0 55 3 64 28
86 36 31 81 31 112 0z"/>
</g>
</svg>
